<?xml version="1.0" standalone="no"?>
        <!DOCTYPE svg PUBLIC "-//W3C//DTD SVG 1.1//EN" 
        "http://www.w3.org/Graphics/SVG/1.1/DTD/svg11.dtd"><svg id="changeColor" fill="#DC7633" xmlns="http://www.w3.org/2000/svg" xmlns:xlink="http://www.w3.org/1999/xlink" width="200" zoomAndPan="magnify" viewBox="0 0 375 374.9999" height="200" preserveAspectRatio="xMidYMid meet" version="1.0"><defs><path id="pathAttribute" d="M 7.09375 7.09375 L 367.84375 7.09375 L 367.84375 367.84375 L 7.09375 367.84375 Z M 7.09375 7.09375 " fill="green"></path></defs><g><path id="pathAttribute" d="M 187.46875 7.09375 C 87.851562 7.09375 7.09375 87.851562 7.09375 187.46875 C 7.09375 287.085938 87.851562 367.84375 187.46875 367.84375 C 287.085938 367.84375 367.84375 287.085938 367.84375 187.46875 C 367.84375 87.851562 287.085938 7.09375 187.46875 7.09375 " fill-opacity="1" fill-rule="nonzero" fill="green"></path></g><g id="inner-icon" transform="translate(85, 75)"> <svg xmlns="http://www.w3.org/2000/svg" class="icon icon-tabler icon-tabler-c-sharp" width="217" height="217" viewBox="0 0 24 24" stroke-width="2" stroke="currentColor" fill="none" stroke-linecap="round" stroke-linejoin="round" id="IconChangeColor"> <path stroke="#fafafa" d="M0 0h24v24H0z" fill="green" id="mainIconPathAttribute" stroke-width="0"></path> <path d="M10 9a3 3 0 0 0 -3 -3h-.5a3.5 3.5 0 0 0 -3.5 3.5v5a3.5 3.5 0 0 0 3.5 3.5h.5a3 3 0 0 0 3 -3" id="mainIconPathAttribute" fill="green" stroke="#fafafa"></path> <path d="M16 7l-1 10" id="mainIconPathAttribute" fill="green" stroke="#fafafa"></path> <path d="M20 7l-1 10" id="mainIconPathAttribute" fill="green" stroke="#fafafa"></path> <path d="M14 10h7.5" id="mainIconPathAttribute" fill="green" stroke="#fafafa"></path> <path d="M21 14h-7.5" id="mainIconPathAttribute" fill="green" stroke="#fafafa"></path> </svg> </g></svg>